<?xml version="1.0" encoding="UTF-8" standalone="no"?><svg xmlns="http://www.w3.org/2000/svg" xmlns:xlink="http://www.w3.org/1999/xlink" contentStyleType="text/css" height="407px" preserveAspectRatio="none" style="width:607px;height:407px;background:#FFFFFF;" version="1.1" viewBox="0 0 607 407" width="607px" zoomAndPan="magnify"><defs/><g><!--MD5=[76410cda49e5d7b75c5bd06aa47a685f]
class message--><g id="elem_message"><rect codeLine="4" fill="#F1F1F1" height="42.7031" id="message" rx="2.5" ry="2.5" style="stroke:#181818;stroke-width:0.5;" width="259" x="193.5" y="7"/><ellipse cx="208.5" cy="28.3516" fill="#ADD1B2" rx="11" ry="11" style="stroke:#181818;stroke-width:1.0;"/><path d="M211.2656,24.2266 Q211.4219,24.0078 211.6094,23.8984 Q211.7969,23.7891 212.0156,23.7891 Q212.3906,23.7891 212.625,24.0469 Q212.8594,24.3047 212.8594,24.9141 L212.8594,26.3672 Q212.8594,26.9766 212.625,27.2422 Q212.3906,27.5078 212.0156,27.5078 Q211.6719,27.5078 211.4688,27.3047 Q211.2656,27.1172 211.1563,26.6016 Q211.1094,26.2422 210.9219,26.0547 Q210.5938,25.6797 209.9844,25.4609 Q209.375,25.2422 208.75,25.2422 Q207.9844,25.2422 207.3516,25.5703 Q206.7188,25.8984 206.2266,26.6484 Q205.7344,27.3984 205.7344,28.4297 L205.7344,29.5234 Q205.7344,30.7578 206.625,31.5781 Q207.5156,32.3984 209.1094,32.3984 Q210.0469,32.3984 210.7031,32.1484 Q211.0938,31.9922 211.5156,31.5547 Q211.7813,31.2891 211.9297,31.2109 Q212.0781,31.1328 212.2813,31.1328 Q212.6094,31.1328 212.8672,31.3906 Q213.125,31.6484 213.125,31.9922 Q213.125,32.3359 212.7813,32.7422 Q212.2813,33.3203 211.4844,33.6484 Q210.4063,34.1016 209.1094,34.1016 Q207.5938,34.1016 206.3906,33.4766 Q205.4063,32.9766 204.7188,31.9063 Q204.0313,30.8359 204.0313,29.5547 L204.0313,28.3984 Q204.0313,27.0703 204.6484,25.9219 Q205.2656,24.7734 206.3594,24.1563 Q207.4531,23.5391 208.6875,23.5391 Q209.4219,23.5391 210.0703,23.7031 Q210.7188,23.8672 211.2656,24.2266 Z " fill="#000000"/><text fill="#000000" font-family="sans-serif" font-size="12" font-style="italic" lengthAdjust="spacing" textLength="172" x="250" y="24.457">«MedComMessagingMessage»</text><text fill="#000000" font-family="sans-serif" font-size="14" lengthAdjust="spacing" textLength="227" x="222.5" y="41.627">MedComAcknowledgementMessage</text></g><!--MD5=[d74c0150cefd6163f70b4324cc822a09]
class messageHeader--><g id="elem_messageHeader"><rect codeLine="5" fill="#F1F1F1" height="42.7031" id="messageHeader" rx="2.5" ry="2.5" style="stroke:#181818;stroke-width:0.5;" width="305" x="141.5" y="238"/><ellipse cx="156.5" cy="259.3516" fill="#ADD1B2" rx="11" ry="11" style="stroke:#181818;stroke-width:1.0;"/><path d="M159.2656,255.2266 Q159.4219,255.0078 159.6094,254.8984 Q159.7969,254.7891 160.0156,254.7891 Q160.3906,254.7891 160.625,255.0469 Q160.8594,255.3047 160.8594,255.9141 L160.8594,257.3672 Q160.8594,257.9766 160.625,258.2422 Q160.3906,258.5078 160.0156,258.5078 Q159.6719,258.5078 159.4688,258.3047 Q159.2656,258.1172 159.1563,257.6016 Q159.1094,257.2422 158.9219,257.0547 Q158.5938,256.6797 157.9844,256.4609 Q157.375,256.2422 156.75,256.2422 Q155.9844,256.2422 155.3516,256.5703 Q154.7188,256.8984 154.2266,257.6484 Q153.7344,258.3984 153.7344,259.4297 L153.7344,260.5234 Q153.7344,261.7578 154.625,262.5781 Q155.5156,263.3984 157.1094,263.3984 Q158.0469,263.3984 158.7031,263.1484 Q159.0938,262.9922 159.5156,262.5547 Q159.7813,262.2891 159.9297,262.2109 Q160.0781,262.1328 160.2813,262.1328 Q160.6094,262.1328 160.8672,262.3906 Q161.125,262.6484 161.125,262.9922 Q161.125,263.3359 160.7813,263.7422 Q160.2813,264.3203 159.4844,264.6484 Q158.4063,265.1016 157.1094,265.1016 Q155.5938,265.1016 154.3906,264.4766 Q153.4063,263.9766 152.7188,262.9063 Q152.0313,261.8359 152.0313,260.5547 L152.0313,259.3984 Q152.0313,258.0703 152.6484,256.9219 Q153.2656,255.7734 154.3594,255.1563 Q155.4531,254.5391 156.6875,254.5391 Q157.4219,254.5391 158.0703,254.7031 Q158.7188,254.8672 159.2656,255.2266 Z " fill="#000000"/><text fill="#000000" font-family="sans-serif" font-size="12" font-style="italic" lengthAdjust="spacing" textLength="213" x="200.5" y="255.457">«MedComMessagingMessageHeader»</text><text fill="#000000" font-family="sans-serif" font-size="14" lengthAdjust="spacing" textLength="273" x="170.5" y="272.627">MedComAcknowledgementMessageHeader</text></g><!--MD5=[d64d5c7357c79f774106f79272da7625]
class organization--><g id="elem_organization"><rect codeLine="6" fill="#F1F1F1" height="42.7031" id="organization" rx="2.5" ry="2.5" style="stroke:#181818;stroke-width:0.5;" width="236" x="364" y="359"/><ellipse cx="379" cy="380.3516" fill="#ADD1B2" rx="11" ry="11" style="stroke:#181818;stroke-width:1.0;"/><path d="M381.7656,376.2266 Q381.9219,376.0078 382.1094,375.8984 Q382.2969,375.7891 382.5156,375.7891 Q382.8906,375.7891 383.125,376.0469 Q383.3594,376.3047 383.3594,376.9141 L383.3594,378.3672 Q383.3594,378.9766 383.125,379.2422 Q382.8906,379.5078 382.5156,379.5078 Q382.1719,379.5078 381.9688,379.3047 Q381.7656,379.1172 381.6563,378.6016 Q381.6094,378.2422 381.4219,378.0547 Q381.0938,377.6797 380.4844,377.4609 Q379.875,377.2422 379.25,377.2422 Q378.4844,377.2422 377.8516,377.5703 Q377.2188,377.8984 376.7266,378.6484 Q376.2344,379.3984 376.2344,380.4297 L376.2344,381.5234 Q376.2344,382.7578 377.125,383.5781 Q378.0156,384.3984 379.6094,384.3984 Q380.5469,384.3984 381.2031,384.1484 Q381.5938,383.9922 382.0156,383.5547 Q382.2813,383.2891 382.4297,383.2109 Q382.5781,383.1328 382.7813,383.1328 Q383.1094,383.1328 383.3672,383.3906 Q383.625,383.6484 383.625,383.9922 Q383.625,384.3359 383.2813,384.7422 Q382.7813,385.3203 381.9844,385.6484 Q380.9063,386.1016 379.6094,386.1016 Q378.0938,386.1016 376.8906,385.4766 Q375.9063,384.9766 375.2188,383.9063 Q374.5313,382.8359 374.5313,381.5547 L374.5313,380.3984 Q374.5313,379.0703 375.1484,377.9219 Q375.7656,376.7734 376.8594,376.1563 Q377.9531,375.5391 379.1875,375.5391 Q379.9219,375.5391 380.5703,375.7031 Q381.2188,375.8672 381.7656,376.2266 Z " fill="#000000"/><text fill="#000000" font-family="sans-serif" font-size="12" font-style="italic" lengthAdjust="spacing" textLength="162" x="414" y="376.457">«MedComCoreOrganization»</text><text fill="#000000" font-family="sans-serif" font-size="14" lengthAdjust="spacing" textLength="204" x="393" y="393.627">MedComMessagingOrganization</text></g><!--MD5=[134450525739527685064faa304c6b67]
class provenance--><g id="elem_provenance"><rect codeLine="7" fill="#F1F1F1" height="32" id="provenance" rx="2.5" ry="2.5" style="stroke:#181818;stroke-width:0.5;" width="232" x="360" y="128"/><ellipse cx="375" cy="144" fill="#ADD1B2" rx="11" ry="11" style="stroke:#181818;stroke-width:1.0;"/><path d="M377.7656,139.875 Q377.9219,139.6563 378.1094,139.5469 Q378.2969,139.4375 378.5156,139.4375 Q378.8906,139.4375 379.125,139.6953 Q379.3594,139.9531 379.3594,140.5625 L379.3594,142.0156 Q379.3594,142.625 379.125,142.8906 Q378.8906,143.1563 378.5156,143.1563 Q378.1719,143.1563 377.9688,142.9531 Q377.7656,142.7656 377.6563,142.25 Q377.6094,141.8906 377.4219,141.7031 Q377.0938,141.3281 376.4844,141.1094 Q375.875,140.8906 375.25,140.8906 Q374.4844,140.8906 373.8516,141.2188 Q373.2188,141.5469 372.7266,142.2969 Q372.2344,143.0469 372.2344,144.0781 L372.2344,145.1719 Q372.2344,146.4063 373.125,147.2266 Q374.0156,148.0469 375.6094,148.0469 Q376.5469,148.0469 377.2031,147.7969 Q377.5938,147.6406 378.0156,147.2031 Q378.2813,146.9375 378.4297,146.8594 Q378.5781,146.7813 378.7813,146.7813 Q379.1094,146.7813 379.3672,147.0391 Q379.625,147.2969 379.625,147.6406 Q379.625,147.9844 379.2813,148.3906 Q378.7813,148.9688 377.9844,149.2969 Q376.9063,149.75 375.6094,149.75 Q374.0938,149.75 372.8906,149.125 Q371.9063,148.625 371.2188,147.5547 Q370.5313,146.4844 370.5313,145.2031 L370.5313,144.0469 Q370.5313,142.7188 371.1484,141.5703 Q371.7656,140.4219 372.8594,139.8047 Q373.9531,139.1875 375.1875,139.1875 Q375.9219,139.1875 376.5703,139.3516 Q377.2188,139.5156 377.7656,139.875 Z " fill="#000000"/><text fill="#000000" font-family="sans-serif" font-size="14" lengthAdjust="spacing" textLength="200" x="389" y="149.7285">MedComMessagingProvenance</text></g><!--MD5=[8eea9f157b18cbae56331c03ae5be20b]
class outcome--><g id="elem_outcome"><rect codeLine="8" fill="#F1F1F1" height="32" id="outcome" rx="2.5" ry="2.5" style="stroke:#181818;stroke-width:0.5;" width="322" x="7" y="364.5"/><ellipse cx="22" cy="380.5" fill="#ADD1B2" rx="11" ry="11" style="stroke:#181818;stroke-width:1.0;"/><path d="M24.7656,376.375 Q24.9219,376.1563 25.1094,376.0469 Q25.2969,375.9375 25.5156,375.9375 Q25.8906,375.9375 26.125,376.1953 Q26.3594,376.4531 26.3594,377.0625 L26.3594,378.5156 Q26.3594,379.125 26.125,379.3906 Q25.8906,379.6563 25.5156,379.6563 Q25.1719,379.6563 24.9688,379.4531 Q24.7656,379.2656 24.6563,378.75 Q24.6094,378.3906 24.4219,378.2031 Q24.0938,377.8281 23.4844,377.6094 Q22.875,377.3906 22.25,377.3906 Q21.4844,377.3906 20.8516,377.7188 Q20.2188,378.0469 19.7266,378.7969 Q19.2344,379.5469 19.2344,380.5781 L19.2344,381.6719 Q19.2344,382.9063 20.125,383.7266 Q21.0156,384.5469 22.6094,384.5469 Q23.5469,384.5469 24.2031,384.2969 Q24.5938,384.1406 25.0156,383.7031 Q25.2813,383.4375 25.4297,383.3594 Q25.5781,383.2813 25.7813,383.2813 Q26.1094,383.2813 26.3672,383.5391 Q26.625,383.7969 26.625,384.1406 Q26.625,384.4844 26.2813,384.8906 Q25.7813,385.4688 24.9844,385.7969 Q23.9063,386.25 22.6094,386.25 Q21.0938,386.25 19.8906,385.625 Q18.9063,385.125 18.2188,384.0547 Q17.5313,382.9844 17.5313,381.7031 L17.5313,380.5469 Q17.5313,379.2188 18.1484,378.0703 Q18.7656,376.9219 19.8594,376.3047 Q20.9531,375.6875 22.1875,375.6875 Q22.9219,375.6875 23.5703,375.8516 Q24.2188,376.0156 24.7656,376.375 Z " fill="#000000"/><text fill="#000000" font-family="sans-serif" font-size="14" lengthAdjust="spacing" textLength="290" x="36" y="386.2285">MedComAcknowledgementOperationOutcome</text></g><!--MD5=[fffb7fd05b1ac69401eabd1063be1169]
link message to messageHeader--><g id="link_message_messageHeader"><path codeLine="10" d="M320.38,50.23 C315.06,92.21 303.03,187.17 297.24,232.92 " fill="none" id="message-to-messageHeader" style="stroke:#181818;stroke-width:1.0;"/><polygon fill="#181818" points="296.6,237.99,301.7004,229.5647,297.229,233.0297,293.7639,228.5583,296.6,237.99" style="stroke:#181818;stroke-width:1.0;"/><text fill="#000000" font-family="sans-serif" font-size="13" lengthAdjust="spacing" textLength="29" x="311" y="149.4951">entry</text></g><!--MD5=[81f298224060e516a9ea14ff98c71ca4]
link message to provenance--><g id="link_message_provenance"><path codeLine="11" d="M350.71,50.05 C379.32,71.28 423.55,104.09 451.09,124.52 " fill="none" id="message-to-provenance" style="stroke:#181818;stroke-width:1.0;"/><polygon fill="#181818" points="455.36,127.69,450.5257,119.1093,451.348,124.706,445.7513,125.5284,455.36,127.69" style="stroke:#181818;stroke-width:1.0;"/><text fill="#000000" font-family="sans-serif" font-size="13" lengthAdjust="spacing" textLength="29" x="414" y="94.4951">entry</text></g><!--MD5=[a864ff11b7a0255841c7b26aa9aedee8]
link provenance to messageHeader--><g id="link_provenance_messageHeader"><path codeLine="12" d="M451.83,160.07 C420.98,179.31 367.3,212.79 331.21,235.29 " fill="none" id="provenance-to-messageHeader" style="stroke:#181818;stroke-width:1.0;"/><polygon fill="#181818" points="326.9,237.98,336.6541,236.6168,331.144,235.3364,332.4243,229.8264,326.9,237.98" style="stroke:#181818;stroke-width:1.0;"/><text fill="#000000" font-family="sans-serif" font-size="13" lengthAdjust="spacing" textLength="33" x="402" y="204.4951">target</text></g><!--MD5=[df78789b268a0a149f5d23d4e89f3481]
link provenance to organization--><g id="link_provenance_organization"><path codeLine="13" d="M476.38,160.03 C477.39,199.14 480.08,304.47 481.34,353.6 " fill="none" id="provenance-to-organization" style="stroke:#181818;stroke-width:1.0;"/><polygon fill="#181818" points="481.47,358.74,485.2373,349.6402,481.3415,353.7417,477.24,349.8458,481.47,358.74" style="stroke:#181818;stroke-width:1.0;"/><text fill="#000000" font-family="sans-serif" font-size="13" lengthAdjust="spacing" textLength="59" x="480" y="264.9951">agent.who</text></g><!--MD5=[746a33207db6e799502ef4ecf0370aea]
link messageHeader to organization--><g id="link_messageHeader_organization"><path codeLine="15" d="M344.44,281.03 C362.81,289.35 383.38,299.67 401,311 C421.14,323.95 441.71,341.41 457.08,355.46 " fill="none" id="messageHeader-to-organization" style="stroke:#181818;stroke-width:1.0;"/><polygon fill="#181818" points="460.87,358.95,456.9655,349.9082,457.1943,355.5604,451.5421,355.7892,460.87,358.95" style="stroke:#181818;stroke-width:1.0;"/><text fill="#000000" font-family="sans-serif" font-size="13" lengthAdjust="spacing" textLength="39" x="425" y="325.4951">sender</text></g><!--MD5=[746a33207db6e799502ef4ecf0370aea]
link messageHeader to organization--><g id="link_messageHeader_organization"><path codeLine="16" d="M305.75,281.3 C315.18,296.36 329.69,316.24 347,329 C362.78,340.63 381.55,349.88 400,357.1 " fill="none" id="messageHeader-to-organization-1" style="stroke:#181818;stroke-width:1.0;"/><polygon fill="#181818" points="404.69,358.9,397.7115,351.9501,400.0196,357.1147,394.855,359.4227,404.69,358.9" style="stroke:#181818;stroke-width:1.0;"/><text fill="#000000" font-family="sans-serif" font-size="13" lengthAdjust="spacing" textLength="44" x="348" y="325.4951">receiver</text></g><!--MD5=[dd61f2726487b6026b029f1288697a88]
link messageHeader to outcome--><g id="link_messageHeader_outcome"><path codeLine="17" d="M248.36,281.07 C233.99,289.02 218.81,299.1 207,311 C193.15,324.97 182.56,344.85 175.93,359.6 " fill="none" id="messageHeader-to-outcome" style="stroke:#181818;stroke-width:1.0;"/><polygon fill="#181818" points="173.84,364.39,181.1294,357.7669,175.8561,359.8145,173.8085,354.5412,173.84,364.39" style="stroke:#181818;stroke-width:1.0;"/><text fill="#000000" font-family="sans-serif" font-size="13" lengthAdjust="spacing" textLength="95" x="208" y="325.4951">response.details</text></g><!--MD5=[d98ea00f45593d7ed752c200187f77d8]
@startuml MedComAcknowledgementMessage

hide empty members

class "MedComAcknowledgementMessage" as message <<MedComMessagingMessage>>
class "MedComAcknowledgementMessageHeader" as messageHeader <<MedComMessagingMessageHeader>>
class "MedComMessagingOrganization" as organization <<MedComCoreOrganization>>
class "MedComMessagingProvenance" as provenance
class "MedComAcknowledgementOperationOutcome" as outcome

message - -> messageHeader : "entry"
message - -> provenance : "entry"
provenance - -> messageHeader : "target"
provenance - -> organization : "agent.who"

messageHeader - -> organization : "sender"
messageHeader - -> organization : "receiver"
messageHeader - -> outcome : "response.details"
@enduml

PlantUML version 1.2022.7(Mon Aug 22 19:01:30 CEST 2022)
(GPL source distribution)
Java Runtime: Java(TM) SE Runtime Environment
JVM: Java HotSpot(TM) 64-Bit Server VM
Default Encoding: Cp1252
Language: da
Country: DK
--></g></svg>